<svg id="Layer_1" data-name="Layer 1" xmlns="http://www.w3.org/2000/svg" viewBox="0 0 1100 480"><defs><style>.cls-1{fill:#f7f4ec;}.cls-2{fill:#2dd4bf;opacity:0.04;}.cls-2,.cls-7,.cls-8,.cls-9{isolation:isolate;}.cls-3,.cls-9{fill:#0b1217;}.cls-4,.cls-5,.cls-6,.cls-7,.cls-8{fill:none;stroke:#2dd4bf;}.cls-4{stroke-width:3px;}.cls-5,.cls-6,.cls-7,.cls-8{stroke-width:2.5px;}.cls-6{stroke-linecap:round;stroke-linejoin:round;}.cls-7{opacity:0.9;}.cls-8{opacity:0.5;}.cls-9{font-size:16px;font-family:Arial-BoldMT, Arial;font-weight:700;}.cls-10{letter-spacing:-0.06em;}</style></defs><title>Artboard 1devity</title><rect class="cls-1" width="1100" height="480"/><circle class="cls-2" cx="550" cy="260" r="240"/><rect class="cls-3" x="410" y="46" width="280" height="380" rx="24"/><rect class="cls-3" x="500" y="28" width="100" height="44" rx="10"/><rect class="cls-4" x="500" y="28" width="100" height="44" rx="10"/><rect class="cls-5" x="450" y="106" width="24" height="24" rx="4"/><path class="cls-6" d="M455,118l5,5,10-13"/><line class="cls-7" x1="490" y1="118" x2="640" y2="118"/><rect class="cls-5" x="450" y="166" width="24" height="24" rx="4"/><path class="cls-6" d="M455,178l5,5,10-13"/><line class="cls-7" x1="490" y1="178" x2="640" y2="178"/><rect class="cls-8" x="450" y="226" width="24" height="24" rx="4"/><line class="cls-8" x1="490" y1="238" x2="620" y2="238"/><rect class="cls-8" x="450" y="286" width="24" height="24" rx="4"/><line class="cls-8" x1="490" y1="298" x2="640" y2="298"/><text class="cls-9" transform="translate(427.97 458)"><tspan class="cls-10">V</tspan><tspan x="9.79" y="0">erified before anything is signed</tspan></text></svg>